<svg xmlns="http://www.w3.org/2000/svg" width="109.01" height="30.115" viewBox="0 0 109.01 30.115">
  <g id="Group_2177" data-name="Group 2177" transform="translate(19529.602 4503.707)">
    <g id="Group_2175" data-name="Group 2175">
      <circle id="Ellipse_326" data-name="Ellipse 326" cx="10.147" cy="10.147" r="10.147" transform="translate(-19529 -4481.17) rotate(-76.717)" fill="none" stroke="#db5935" stroke-miterlimit="10" stroke-width="1"/>
      <g id="Group_2165" data-name="Group 2165" transform="translate(-19523.082 -4493.862)">
        <path id="Path_504" data-name="Path 504" d="M448.051,280.945a5.139,5.139,0,0,1-1.262.361c.2-.034.5-.4.623-.551a2.324,2.324,0,0,0,.42-.766c.011-.022.019-.049,0-.066a.072.072,0,0,0-.067.006,6.456,6.456,0,0,1-1.5.574.1.1,0,0,1-.1-.027,1.2,1.2,0,0,0-.131-.134,2.651,2.651,0,0,0-.726-.445,2.528,2.528,0,0,0-1.114-.18,2.662,2.662,0,0,0-1.057.3,2.72,2.72,0,0,0-.853.7,2.621,2.621,0,0,0-.509,1.02,2.766,2.766,0,0,0-.027,1.077c.008.06,0,.068-.052.06a8.01,8.01,0,0,1-5.153-2.623c-.06-.069-.093-.069-.142.005a2.613,2.613,0,0,0,.446,3.087c.1.1.2.192.317.279a2.626,2.626,0,0,1-.994-.279c-.06-.038-.09-.016-.1.052a1.576,1.576,0,0,0,.016.3,2.643,2.643,0,0,0,1.629,2.107,1.534,1.534,0,0,0,.33.1,2.945,2.945,0,0,1-.975.03c-.071-.014-.1.022-.071.09a2.743,2.743,0,0,0,2.049,1.716c.093.016.186.016.279.038-.006.008-.011.008-.016.016a3.248,3.248,0,0,1-1.4.742,5.014,5.014,0,0,1-2.125.272c-.114-.017-.138-.016-.169,0s0,.047.033.076c.145.1.292.18.443.262a7.024,7.024,0,0,0,1.421.568,7.567,7.567,0,0,0,7.346-1.718,7.708,7.708,0,0,0,2.033-5.624c0-.081.1-.125.152-.168a4.949,4.949,0,0,0,1-1.04.3.3,0,0,0,.062-.2v-.011C448.1,280.912,448.1,280.922,448.051,280.945Z" transform="translate(-435.599 -279.711)" fill="#db5935"/>
        <path id="Path_505" data-name="Path 505" d="M450.27,320.227Z" transform="translate(-446.558 -309.976)" fill="#db5935" fill-rule="evenodd"/>
        <path id="Path_506" data-name="Path 506" d="M449.988,320.227c-.016,0-.206,0,0,0Z" transform="translate(-446.276 -309.976)" fill="#db5935" fill-rule="evenodd"/>
        <path id="Path_507" data-name="Path 507" d="M451.933,320.242c0-.021.222,0,0,0C451.933,320.232,451.96,320.242,451.933,320.242Z" transform="translate(-447.8 -309.981)" fill="#db5935" fill-rule="evenodd"/>
        <path id="Path_508" data-name="Path 508" d="M469.254,279.771a.044.044,0,0,1-.052,0Z" transform="translate(-460.7 -279.756)" fill="#db5935" fill-rule="evenodd"/>
      </g>
    </g>
    <path id="Path_509" data-name="Path 509" d="M586.115,300.411l.252,0,.123.387c-.137.091-.006.172.009.257l-.133.134a.252.252,0,0,0-.129.254C585.981,301.126,586.16,300.755,586.115,300.411Z" transform="translate(-20066.096 -4789.036)" fill="#a7b5d1"/>
    <g id="Group_2172" data-name="Group 2172" transform="translate(-3.867)">
      <circle id="Ellipse_327" data-name="Ellipse 327" cx="10.147" cy="10.147" r="10.147" transform="translate(-19498.133 -4481.17) rotate(-76.717)" fill="none" stroke="#db5935" stroke-miterlimit="10" stroke-width="1"/>
      <path id="Path_510" data-name="Path 510" d="M576.407,281.13v6.215a.162.162,0,0,0,.162.162h2.308a.162.162,0,0,0,.162-.162v-6.316h1.673a.162.162,0,0,0,.161-.148l.161-1.9a.162.162,0,0,0-.161-.176h-1.834v-1.35a.573.573,0,0,1,.573-.573h1.29a.162.162,0,0,0,.162-.162v-1.9a.162.162,0,0,0-.162-.162h-2.179a2.315,2.315,0,0,0-2.315,2.315V278.8h-1.154a.162.162,0,0,0-.162.162v1.9a.162.162,0,0,0,.162.162h1.154Z" transform="translate(-20064.014 -4769.794)" fill="#db5935" fill-rule="evenodd"/>
    </g>
    <g id="Group_2174" data-name="Group 2174" transform="translate(-15.623)">
      <circle id="Ellipse_328" data-name="Ellipse 328" cx="10.147" cy="10.147" r="10.147" transform="translate(-19434.377 -4488.65) rotate(-45)" fill="none" stroke="#db5935" stroke-miterlimit="10" stroke-width="1"/>
      <g id="Group_2166" data-name="Group 2166" transform="translate(-19426.256 -4493.03)">
        <path id="Path_511" data-name="Path 511" d="M701.65,185.754A2.754,2.754,0,0,0,698.9,183h-7.142A2.754,2.754,0,0,0,689,185.754V189.1a2.754,2.754,0,0,0,2.754,2.754H698.9a2.754,2.754,0,0,0,2.754-2.754Zm-4.507,1.842-2.848,1.562c-.124.067-.235-.023-.235-.163v-3.207c0-.142.115-.232.239-.161l2.868,1.645A.187.187,0,0,1,697.144,187.6Z" transform="translate(-689 -183)" fill="#db5935"/>
      </g>
    </g>
    <g id="Group_2176" data-name="Group 2176" transform="translate(-9.987)">
      <g id="Group_2173" data-name="Group 2173">
        <circle id="Ellipse_328-2" data-name="Ellipse 328" cx="10.147" cy="10.147" r="10.147" transform="translate(-19467.014 -4488.65) rotate(-45)" fill="none" stroke="#db5935" stroke-miterlimit="10" stroke-width="1"/>
      </g>
      <g id="Group_2171" data-name="Group 2171" transform="translate(-19457.906 -4494.41)">
        <rect id="Rectangle_1753" data-name="Rectangle 1753" width="2.497" height="7.136" transform="translate(0 3.568)" fill="#db5935"/>
        <path id="Path_512" data-name="Path 512" d="M368.841,420.023a1.249,1.249,0,1,0,1.248,1.249A1.25,1.25,0,0,0,368.841,420.023Z" transform="translate(-367.592 -420.023)" fill="#db5935"/>
        <path id="Path_513" data-name="Path 513" d="M400.493,445.969c-.168-1.345-.841-2.192-2.659-2.192-1.29,0-1.8.2-2.1.764h0v-.764h-2.021v7.136h2.08v-3.735c0-.932.177-1.637,1.329-1.637,1.136,0,1.228.867,1.228,1.7v3.675h2.142S400.532,446.283,400.493,445.969Z" transform="translate(-389.789 -440.209)" fill="#db5935"/>
      </g>
    </g>
  </g>
</svg>
